<svg width="16" height="16" viewBox="0 0 16 16" fill="none" xmlns="http://www.w3.org/2000/svg">
<path d="M9.68661 6.31328L6.31328 9.68661C5.87995 9.25328 5.61328 8.65995 5.61328 7.99995C5.61328 6.67995 6.67995 5.61328 7.99995 5.61328C8.65995 5.61328 9.25328 5.87995 9.68661 6.31328Z" stroke="#292D32" stroke-linecap="round" stroke-linejoin="round"/>
<path d="M3.73323 11.8399C3.06656 11.2666 2.4599 10.5599 1.92656 9.72659C1.32656 8.78659 1.32656 7.20659 1.92656 6.26659C2.71323 5.03325 3.67323 4.06659 4.74656 3.41992" stroke="#292D32" stroke-linecap="round" stroke-linejoin="round"/>
<path d="M11.88 3.84682C10.7133 2.96682 9.38 2.48682 8 2.48682" stroke="#292D32" stroke-linecap="round" stroke-linejoin="round"/>
<path d="M5.61328 13.02C6.37328 13.34 7.17995 13.5133 7.99995 13.5133C10.3533 13.5133 12.5466 12.1266 14.0733 9.72662C14.6733 8.78662 14.6733 7.20662 14.0733 6.26662C13.8533 5.91995 13.6133 5.59329 13.3666 5.28662" stroke="#292D32" stroke-linecap="round" stroke-linejoin="round"/>
<path d="M10.3409 8.4668C10.1676 9.4068 9.40094 10.1735 8.46094 10.3468" stroke="#292D32" stroke-linecap="round" stroke-linejoin="round"/>
<path d="M6.31398 9.68652L1.33398 14.6665" stroke="#292D32" stroke-linecap="round" stroke-linejoin="round"/>
<path d="M14.6675 1.3335L9.6875 6.3135" stroke="#292D32" stroke-linecap="round" stroke-linejoin="round"/>
</svg>
