<svg width="52" height="52" viewBox="0 0 52 52" fill="none" xmlns="http://www.w3.org/2000/svg">
<rect width="52" height="52" rx="26" fill="white" fill-opacity="0.25"/>
<g filter="url(#filter0_i_448_11268)">
<path d="M38.5 18.3742V31.1115C38.5 32.3326 37.8335 33.4588 36.7503 34.0542L26.0022 40L15.2497 34.0542C14.1665 33.4588 13.5 32.3326 13.5 31.1115V18.3742C13.5 16.5102 15.0348 15 16.9292 15H24.3227V23.8842C23.2044 24.471 22.4458 25.6317 22.4458 26.9693C22.4458 28.9023 24.0376 30.4686 26.0022 30.4686C27.9668 30.4686 29.5542 28.9023 29.5542 26.9693C29.5542 25.6317 28.7956 24.471 27.6773 23.8842V15H35.0708C36.9652 15 38.5 16.5102 38.5 18.3742Z" fill="white"/>
</g>
<defs>
<filter id="filter0_i_448_11268" x="13.5" y="12" width="25" height="28" filterUnits="userSpaceOnUse" color-interpolation-filters="sRGB">
<feFlood flood-opacity="0" result="BackgroundImageFix"/>
<feBlend mode="normal" in="SourceGraphic" in2="BackgroundImageFix" result="shape"/>
<feColorMatrix in="SourceAlpha" type="matrix" values="0 0 0 0 0 0 0 0 0 0 0 0 0 0 0 0 0 0 127 0" result="hardAlpha"/>
<feOffset dy="-3"/>
<feGaussianBlur stdDeviation="1.5"/>
<feComposite in2="hardAlpha" operator="arithmetic" k2="-1" k3="1"/>
<feColorMatrix type="matrix" values="0 0 0 0 0 0 0 0 0 0 0 0 0 0 0 0 0 0 0.37 0"/>
<feBlend mode="normal" in2="shape" result="effect1_innerShadow_448_11268"/>
</filter>
</defs>
</svg>
