<svg width="32" height="32" viewBox="0 0 32 32" fill="none" xmlns="http://www.w3.org/2000/svg">
<path d="M32 4.31895V20.6227C32 22.1857 31.1468 23.6272 29.7604 24.3894L16.0028 32L2.2396 24.3894C0.853179 23.6272 0 22.1857 0 20.6227V4.31895C0 1.93303 1.96456 0 4.38939 0H13.853V11.3718C12.4217 12.1229 11.4506 13.6086 11.4506 15.3207C11.4506 17.795 13.4882 19.7998 16.0028 19.7998C18.5174 19.7998 20.5494 17.795 20.5494 15.3207C20.5494 13.6086 19.5783 12.1229 18.147 11.3718V0H27.6106C30.0354 0 32 1.93303 32 4.31895Z" fill="white"/>
</svg>
